<svg xmlns="http://www.w3.org/2000/svg" width="29.993" height="29.993" viewBox="0 0 29.993 29.993"><defs><style>.a{fill:#543c52;}</style></defs><g transform="translate(-51 -11.002)"><g transform="translate(51 11.002)"><path class="a" d="M29.194,4.869,25.1.776a2.788,2.788,0,0,0-3.858,0L2.924,19.281a.686.686,0,0,0-.172.293L.026,29.125a.682.682,0,0,0,.843.843l9.543-2.729a.685.685,0,0,0,.293-.172L29.194,8.728a2.73,2.73,0,0,0,0-3.859Zm-10.918.867,2.509,2.509-13.1,13.1-.94-1.881a.682.682,0,0,0-.61-.377H5.043ZM1.674,28.32l.888-3.108,2.22,2.22Zm7.869-2.248L6.282,27,2.99,23.713l.932-3.261H5.713L6.888,22.8a.682.682,0,0,0,.3.3l2.35,1.175v1.791Zm1.363-1.121V23.86a.682.682,0,0,0-.377-.61l-1.881-.94,13.1-13.1,2.509,2.509ZM28.232,7.78l-3.006,2.979L19.235,4.768l2.977-3a1.4,1.4,0,0,1,1.928,0l4.09,4.09a1.363,1.363,0,0,1,0,1.926Z" transform="translate(0 -0.002)"/></g></g></svg>