<svg xmlns="http://www.w3.org/2000/svg" width="23.614" height="30.354" viewBox="0 0 23.614 30.354"><defs><style>.a{fill:#f55951;}</style></defs><g transform="translate(0)"><path class="a" d="M127.3,1.832h5.073v.854H134.2V1.713A1.714,1.714,0,0,0,132.49,0h-5.314a1.714,1.714,0,0,0-1.712,1.713v.973H127.3Zm0,0" transform="translate(-118.026 0)"/><path class="a" d="M58.5,167.75H41.3a.807.807,0,0,0-.8.872l1.438,17.78a1.91,1.91,0,0,0,1.9,1.757H55.96a1.91,1.91,0,0,0,1.9-1.757l1.438-17.78a.806.806,0,0,0-.8-.872ZM45.462,186.262l-.057,0a.916.916,0,0,1-.913-.86l-.9-14.6a.916.916,0,0,1,1.829-.113l.9,14.6A.916.916,0,0,1,45.462,186.262Zm5.361-.914a.916.916,0,0,1-1.832,0v-14.6a.916.916,0,0,1,1.832,0ZM56.2,170.805l-.86,14.6a.916.916,0,0,1-.914.862h-.055a.916.916,0,0,1-.861-.968l.86-14.6a.916.916,0,0,1,1.829.108Zm0,0" transform="translate(-38.09 -157.805)"/><path class="a" d="M23.575,78.811l-.6-1.8a1.165,1.165,0,0,0-1.105-.8H1.746a1.165,1.165,0,0,0-1.1.8l-.6,1.8a.757.757,0,0,0,.717.995h22.1a.746.746,0,0,0,.4-.116.755.755,0,0,0,.317-.879Zm0,0" transform="translate(0 -71.693)"/></g></svg>